{"title":"Shiva Ganga 2016 TS Telugu Movies xviD-TvMovize.mp4","uid":13889242,"size":956742686,"categoryP":"video","categoryS":"movies","magnet":"?xt=urn:btih:1e83379fd8c49a04a88c2305e29faf75293f8c48&amp;dn=Shiva+Ganga+2016+TS+Telugu+Movies+xviD-TvMovize.mp4&amp;tr=udp%3A%2F%2Ftracker.leechers-paradise.org%3A6969&amp;tr=udp%3A%2F%2Fzer0day.ch%3A1337&amp;tr=udp%3A%2F%2Fopen.demonii.com%3A1337&amp;tr=udp%3A%2F%2Ftracker.coppersurfer.tk%3A6969&amp;tr=udp%3A%2F%2Fexodus.desync.com%3A6969","seeders":7,"leechers":0,"uploader":"TvMovize","files":1,"time":1458208201,"description":"Shiva Ganga 2016 TS Telugu Movies xviD-TvMovize.mp4\r\n\r\n+ ScreenShots +\r\n \nhttp://www.image2be.com/movie/ShivaGanga/1.html  \nhttp://www.image2be.com/movie/ShivaGanga/2.html  \nhttp://www.image2be.com/movie/ShivaGanga/3.html  \nhttp://www.image2be.com/movie/ShivaGanga/4.html  \nhttp://www.image2be.com/movie/ShivaGanga/5.html \r\n\r\n+ Info +\r\n\r\nFormat : MPEG-4 \r\nFormat profile : Base Media \r\nCodec ID : isom (isom/iso2/avc1/mp41) \r\nFile size : 912 MiB \r\nDuration : 2h 4mn \r\nOverall bit rate mode : Variable \r\nOverall bit rate : 1 021 Kbps \r\nWriting application : Lavf57.20.100 \r\n\r\nVideo \r\nID : 1 \r\nFormat : AVC \r\nFormat/Info : Advanced Video Codec \r\nFormat profile :    \r\nFormat settings, CABAC : Yes \r\nFormat settings, ReFrames : 4 frames \r\nCodec ID : avc1 \r\nCodec ID/Info : Advanced Video Coding \r\nDuration : 2h 4mn \r\nBit rate : 898 Kbps \r\nWidth : 672 pixels \r\nHeight : 290 pixels \r\nDisplay aspect ratio : 2.35:1 \r\nFrame rate mode : Constant \r\nFrame rate : 25.000 fps \r\nColor space : YUV \r\nChroma subsampling : 4:2:0 \r\nBit depth : 8 bits \r\nScan type : Progressive \r\nBits/(Pixel*Frame) : 0.184 \r\nStream size : 802 MiB (88%) \r\nWriting library : x264 core 142 r2479 dd79a61 \r\nEncoding settings : cabac=1 / ref=1 / deblock=1:0:0 / analyse=0x1:0x111 / me=hex / subme=2 / psy=1 / psy_rd=1.00:0.00 / mixed_ref=0 / me_range=16 / chroma_me=1 / trellis=0 / 8x8dct=0 / cqm=0 / deadzone=21,11 / fast_pskip=1 / chroma_qp_offset=0 / threads=6 / lookahead_threads=2 / sliced_threads=0 / nr=0 / decimate=1 / interlaced=0 / bluray_compat=0 / constrained_intra=0 / bframes=3 / b_pyramid=2 / b_adapt=1 / b_bias=0 / direct=1 / weightb=1 / open_gop=0 / weightp=1 / keyint=250 / keyint_min=25 / scenecut=40 / intra_refresh=0 / rc_lookahead=10 / rc=crf / mbtree=1 / crf=22.0 / qcomp=0.60 / qpmin=0 / qpmax=69 / qpstep=4 / vbv_maxrate=20000 / vbv_bufsize=25000 / crf_max=0.0 / nal_hrd=none / filler=0 / ip_ratio=1.40 / aq=1:1.00 \r\nColor range : Limited \r\nColor primaries : BT.601 PAL \r\nTransfer characteristics : BT.709 \r\nMatrix coefficients : BT.601 \r\n\r\nAudio \r\nID : 2 \r\nFormat : AAC \r\nFormat/Info : Advanced Audio Codec \r\nFormat profile : LC \r\nCodec ID : 40 \r\nDuration : 2h 4mn \r\nBit rate mode : Variable \r\nBit rate : 117 Kbps \r\nMaximum bit rate : 128 Kbps \r\nChannel(s) : 2 channels \r\nChannel positions : Front: L R \r\nSampling rate : 44.1 KHz \r\nFrame rate : 43.066 fps (1024 spf) \r\nCompression mode : Lossy \r\nStream size : 104 MiB (11%) \r\nDefault : Yes \r\nAlternate group : 1","torrent":{"xt":"urn:btih:1e83379fd8c49a04a88c2305e29faf75293f8c48","amp;dn":"Shiva+Ganga+2016+TS+Telugu+Movies+xviD-TvMovize.mp4","amp;tr":["udp%3A%2F%2Ftracker.leechers-paradise.org%3A6969","udp%3A%2F%2Fzer0day.ch%3A1337","udp%3A%2F%2Fopen.demonii.com%3A1337","udp%3A%2F%2Ftracker.coppersurfer.tk%3A6969","udp%3A%2F%2Fexodus.desync.com%3A6969"],"infoHash":"1e83379fd8c49a04a88c2305e29faf75293f8c48","infoHashBuffer":{"type":"Buffer","data":[30,131,55,159,216,196,154,4,168,140,35,5,226,159,175,117,41,63,140,72]},"announce":[],"urlList":[]}}